<svg width="20" height="23" viewBox="0 0 20 23" fill="none" xmlns="http://www.w3.org/2000/svg">
<path d="M16.7768 7.91704C16.654 5.82116 14.8773 5.05381 12.6087 4.7695L12.7167 1.87272L10.9535 1.80712L10.8484 4.62755C10.3848 4.61032 9.91067 4.6018 9.43957 4.59363L9.54575 1.75454L7.78345 1.68875L7.67477 4.58467C7.29273 4.57823 6.91757 4.57133 6.552 4.55793L6.55211 4.54894L4.12019 4.45739L4.0504 6.34061C4.0504 6.34061 5.35342 6.36436 5.33088 6.38753C6.04508 6.41439 6.26206 6.83769 6.31633 7.19801L6.19337 10.498C6.24265 10.5002 6.30686 10.5046 6.37929 10.5173C6.32055 10.5152 6.25768 10.5124 6.19301 10.5106L6.02011 15.1336C5.98038 15.3572 5.83488 15.7106 5.33586 15.6929C5.35768 15.7137 4.05413 15.6447 4.05413 15.6447L3.62524 17.7374L5.91985 17.8229C6.34684 17.8394 6.76672 17.8623 7.1791 17.8803L7.07055 20.8101L8.83189 20.8761L8.93997 17.9773C9.42322 18.0053 9.89109 18.0266 10.348 18.0433L10.2396 20.9287L12.0029 20.9943L12.1125 18.0697C15.0832 18.0102 17.1859 17.3408 17.5474 14.5667C17.839 12.3329 16.8219 11.2934 15.1542 10.8265C16.1959 10.3441 16.8693 9.45076 16.7768 7.91704ZM14.0762 14.0895C13.9955 16.279 10.256 15.8901 9.06093 15.8466L9.20619 11.9649C10.4015 12.0098 14.1616 11.8059 14.0762 14.0895ZM13.4605 8.5823C13.3856 10.5742 10.2678 10.2251 9.27242 10.1881L9.40385 6.66751C10.3992 6.70456 13.5378 6.50467 13.4605 8.5823Z" fill="white"/>
</svg>
