<svg width="1500" height="927" viewBox="0 0 1500 927" fill="none" xmlns="http://www.w3.org/2000/svg">
<path d="M913.197 -155.289L12.5794 298.672C12.051 298.938 11.9481 299.396 12.3491 299.697L846.485 926.188C847.002 926.576 848.047 926.498 848.49 926.038L1383.1 370.879C1383.32 370.653 1383.33 370.385 1383.14 370.169L915.012 -155.125C914.666 -155.513 913.797 -155.592 913.197 -155.289Z" fill="#C6ECF9" fill-opacity="0.05"/>
<path d="M1092.45 -47.6142L379.474 322.736C378.965 323.001 378.864 323.445 379.246 323.744L973.889 788.735C974.393 789.129 975.438 789.062 975.895 788.606L1417.05 348.246C1417.27 348.026 1417.29 347.761 1417.12 347.545L1094.3 -47.437C1093.97 -47.8451 1093.06 -47.9317 1092.45 -47.6142Z" fill="#C6ECF9" fill-opacity="0.04"/>
<path d="M1158.34 34.9226L609.263 338.275C608.797 338.532 608.697 338.944 609.03 339.236L958.256 646.036C958.728 646.45 959.785 646.41 960.273 645.961L1329.69 305.367C1329.91 305.164 1329.96 304.915 1329.82 304.7L1160.26 35.1417C1159.97 34.6803 1158.98 34.5676 1158.34 34.9226Z" fill="#C6ECF9" fill-opacity="0.15"/>
</svg>
