<svg width="16" height="16" viewBox="0 0 16 16" fill="none" xmlns="http://www.w3.org/2000/svg">
<path d="M5.75474 7.99984C5.75474 6.79447 6.72467 5.8165 7.91257 5.8165C9.10047 5.8165 10.0704 6.79447 10.0704 7.99984C10.0704 9.2052 9.10047 10.1832 7.91257 10.1832C6.72467 10.1832 5.75474 9.2052 5.75474 7.99984ZM6.7735 7.99984C6.7735 8.63245 7.28287 9.14984 7.91257 9.14984C8.54227 9.14984 9.05164 8.63245 9.05164 7.99984C9.05164 7.36722 8.54227 6.84984 7.91257 6.84984C7.28287 6.84984 6.7735 7.36722 6.7735 7.99984Z" fill="white" stroke="#123C80" stroke-width="0.3"/>
<path d="M13.659 7.34973L13.6737 7.48333H13.8081H15.1658C15.4453 7.48333 15.6751 7.71328 15.6751 8C15.6751 8.28672 15.4453 8.51667 15.1658 8.51667H13.8081H13.6737L13.659 8.65027C13.3612 11.358 11.2304 13.5109 8.55519 13.8116L8.42195 13.8266V13.9607V15.3333C8.42195 15.62 8.19215 15.85 7.91257 15.85C7.63298 15.85 7.40319 15.62 7.40319 15.3333V13.9607V13.8266L7.26994 13.8116C4.59475 13.5109 2.46389 11.358 2.16615 8.65027L2.15146 8.51667H2.01705H0.659381C0.379795 8.51667 0.15 8.28672 0.15 8C0.15 7.71328 0.379795 7.48333 0.659381 7.48333H2.01705H2.15146L2.16615 7.34973C2.46389 4.64203 4.59475 2.4891 7.26994 2.18839L7.40319 2.17342V2.03933V0.666667C7.40319 0.379951 7.63298 0.15 7.91257 0.15C8.19215 0.15 8.42195 0.379951 8.42195 0.666667V2.03933V2.17342L8.55519 2.18839C11.2304 2.4891 13.3612 4.64203 13.659 7.34973ZM3.1469 8C3.1469 10.6546 5.28297 12.8167 7.91257 12.8167C10.5422 12.8167 12.6782 10.6546 12.6782 8C12.6782 5.34538 10.5422 3.18333 7.91257 3.18333C5.28297 3.18333 3.1469 5.34538 3.1469 8Z" fill="white" stroke="#123C80" stroke-width="0.3"/>
</svg>
