<svg width="22" height="21" viewBox="0 0 22 21" fill="none" xmlns="http://www.w3.org/2000/svg">
<path d="M13.2474 7.29117V4.66678H19.2487V0.668091H2.90681V4.66678H8.90889V7.28905C4.03094 7.5131 0.36322 8.47916 0.36322 9.63647C0.36322 10.7938 4.03271 11.7598 8.90889 11.9853V20.3916H13.2488V11.9846C18.1179 11.7598 21.7782 10.7945 21.7782 9.63823C21.7782 8.48199 18.1179 7.51663 13.2488 7.29187L13.2474 7.29117ZM13.2488 11.2726V11.2704C13.1263 11.2782 12.4972 11.316 11.0965 11.316C9.97657 11.316 9.18869 11.2842 8.91101 11.2697V11.2733C4.60148 11.0824 1.38468 10.3319 1.38468 9.43394C1.38468 8.53597 4.60183 7.78655 8.91101 7.59531V10.5256C9.19328 10.545 10.0006 10.5927 11.1148 10.5927C12.4531 10.5927 13.126 10.5369 13.2495 10.5256V7.59531C17.5505 7.7869 20.7599 8.53809 20.7599 9.43288C20.7599 10.3277 17.5491 11.0792 13.2495 11.2708" fill="white"/>
</svg>
